<svg xmlns="http://www.w3.org/2000/svg" xmlns:xlink="http://www.w3.org/1999/xlink" viewBox="0 0 50 50" fill="#0090FF">
  <path d="M19.9375 0.40625C16.257813 0.472656 13.570313 1.570313 11.9375 3.71875C10.003906 6.269531 9.652344 10.144531 10.875 15.21875C10.425781 15.769531 10.085938 16.605469 10.21875 17.71875C10.484375 19.914063 11.359375 20.824219 12.0625 21.1875C12.402344 22.921875 13.359375 24.863281 14.28125 25.78125L14.28125 26.25C14.289063 27.265625 14.285156 28.144531 14.1875 29.28125C13.574219 30.6875 11.535156 31.511719 9.1875 32.4375C5.28125 33.972656 0.425781 35.871094 0.0625 41.9375L0 43L26.28125 43C25.234375 42 24.84375 41 24.84375 41L2.1875 41C2.945313 37.03125 6.5 35.632813 9.9375 34.28125C12.675781 33.203125 15.265625 32.1875 16.125 29.875L16.1875 29.625C16.304688 28.316406 16.289063 27.316406 16.28125 26.25L16.28125 24.71875L15.75 24.4375C15.3125 24.140625 14.160156 22.117188 13.96875 20.3125L13.875 19.5L13.03125 19.4375C12.902344 19.425781 12.40625 19.070313 12.21875 17.5C12.121094 16.695313 12.496094 16.40625 12.5 16.40625L13.15625 16L12.96875 15.28125C11.753906 10.609375 11.9375 7.039063 13.53125 4.9375C14.773438 3.300781 16.949219 2.429688 19.96875 2.375C21.847656 2.375 23.242188 2.871094 23.6875 3.65625L23.9375 4.0625L24.40625 4.125C25.742188 4.3125 26.699219 4.886719 27.3125 5.875C28.847656 8.347656 27.953125 12.910156 27.1875 15.21875L26.96875 15.96875L27.625 16.40625C27.628906 16.410156 28.003906 16.691406 27.90625 17.5C27.71875 19.070313 27.222656 19.429688 27.09375 19.4375L26.25 19.5L26.1875 20.3125C25.992188 22.125 24.839844 24.15625 24.4375 24.4375L23.90625 24.71875L23.90625 26.25C23.898438 27.3125 23.882813 28.320313 24 29.625L24.0625 29.875C24.308594 30.539063 24.699219 31.074219 25.15625 31.53125C25.445313 31.023438 25.972656 30.121094 26.28125 29.8125C26.152344 29.640625 26.046875 29.464844 25.96875 29.28125C25.871094 28.148438 25.898438 27.261719 25.90625 26.25L25.90625 25.78125C26.804688 24.863281 27.726563 22.921875 28.0625 21.1875C28.765625 20.824219 29.644531 19.914063 29.90625 17.71875C30.039063 16.628906 29.71875 15.800781 29.28125 15.25C29.859375 13.269531 31.050781 8.113281 29 4.8125C28.140625 3.429688 26.835938 2.558594 25.125 2.21875C24.179688 1.027344 22.367188 0.40625 19.9375 0.40625 Z M 36 26C30.488281 26 26 30.488281 26 36C26 41.511719 30.488281 46 36 46C38.394531 46 40.589844 45.160156 42.3125 43.75L48.28125 49.71875L49.71875 48.28125L43.75 42.3125C45.160156 40.589844 46 38.394531 46 36C46 30.488281 41.511719 26 36 26 Z M 36 28C40.429688 28 44 31.570313 44 36C44 40.429688 40.429688 44 36 44C31.570313 44 28 40.429688 28 36C28 31.570313 31.570313 28 36 28Z" fill="#0090FF" />
</svg>