<svg xmlns="http://www.w3.org/2000/svg" xmlns:xlink="http://www.w3.org/1999/xlink" viewBox="0 0 50 50" fill="#0090FF">
  <path fill-rule="evenodd" d="M40.34375 1.960938L37.859375 2.417969L41.1875 20.625L43.171875 20.324219 Z M 29.0625 6.664063L27.101563 8.078125L37.300781 23.035156L39.046875 21.796875 Z M 20.351563 15.507813L19.113281 17.703125L34.5 27L35.664063 25.003906 Z M 16.164063 25.171875L15.628906 27.402344L33.359375 31.894531L34 29.921875 Z M 9 29L9 47.984375L38.902344 48L38.902344 47.984375C38.933594 47.984375 39 29 39 29L37 29L37 46L11 46L11 29 Z M 15.171875 33.375L14.902344 35.339844L33 37L33.203125 35.035156 Z M 15 40L15 42L33 41.929688L33 40Z" fill="#0090FF" />
</svg>