<svg xmlns="http://www.w3.org/2000/svg" xmlns:xlink="http://www.w3.org/1999/xlink" viewBox="0 0 50 50" fill="#0090FF">
  <path d="M9 4C6.2504839 4 4 6.2504839 4 9L4 41C4 43.749516 6.2504839 46 9 46L41 46C43.749516 46 46 43.749516 46 41L46 9C46 6.2504839 43.749516 4 41 4L9 4 z M 9 6L41 6C42.668484 6 44 7.3315161 44 9L44 41C44 42.668484 42.668484 44 41 44L9 44C7.3315161 44 6 42.668484 6 41L6 9C6 7.3315161 7.3315161 6 9 6 z M 14 11.011719C12.904779 11.011719 11.919219 11.339079 11.189453 11.953125C10.459687 12.567171 10.011719 13.484511 10.011719 14.466797C10.011719 16.333977 11.631285 17.789609 13.691406 17.933594 A 0.98809878 0.98809878 0 0 0 13.695312 17.935547 A 0.98809878 0.98809878 0 0 0 14 17.988281C16.27301 17.988281 17.988281 16.396083 17.988281 14.466797 A 0.98809878 0.98809878 0 0 0 17.986328 14.414062C17.884577 12.513831 16.190443 11.011719 14 11.011719 z M 14 12.988281C15.392231 12.988281 15.94197 13.610038 16.001953 14.492188C15.989803 15.348434 15.460091 16.011719 14 16.011719C12.614594 16.011719 11.988281 15.302225 11.988281 14.466797C11.988281 14.049083 12.140703 13.734298 12.460938 13.464844C12.78117 13.19539 13.295221 12.988281 14 12.988281 z M 11 19 A 1.0001 1.0001 0 0 0 10 20L10 39 A 1.0001 1.0001 0 0 0 11 40L17 40 A 1.0001 1.0001 0 0 0 18 39L18 33.134766L18 20 A 1.0001 1.0001 0 0 0 17 19L11 19 z M 20 19 A 1.0001 1.0001 0 0 0 19 20L19 39 A 1.0001 1.0001 0 0 0 20 40L26 40 A 1.0001 1.0001 0 0 0 27 39L27 29C27 28.170333 27.226394 27.345035 27.625 26.804688C28.023606 26.264339 28.526466 25.940057 29.482422 25.957031C30.468166 25.973981 30.989999 26.311669 31.384766 26.841797C31.779532 27.371924 32 28.166667 32 29L32 39 A 1.0001 1.0001 0 0 0 33 40L39 40 A 1.0001 1.0001 0 0 0 40 39L40 28.261719C40 25.300181 39.122788 22.95433 37.619141 21.367188C36.115493 19.780044 34.024172 19 31.8125 19C29.710483 19 28.110853 19.704889 27 20.423828L27 20 A 1.0001 1.0001 0 0 0 26 19L20 19 z M 12 21L16 21L16 33.134766L16 38L12 38L12 21 z M 21 21L25 21L25 22.560547 A 1.0001 1.0001 0 0 0 26.798828 23.162109C26.798828 23.162109 28.369194 21 31.8125 21C33.565828 21 35.069366 21.582581 36.167969 22.742188C37.266572 23.901794 38 25.688257 38 28.261719L38 38L34 38L34 29C34 27.833333 33.720468 26.627107 32.990234 25.646484C32.260001 24.665862 31.031834 23.983076 29.517578 23.957031C27.995534 23.930001 26.747519 24.626988 26.015625 25.619141C25.283731 26.611293 25 27.829667 25 29L25 38L21 38L21 21 z" fill="#0090FF" />
</svg>