<svg xmlns="http://www.w3.org/2000/svg" xmlns:xlink="http://www.w3.org/1999/xlink" viewBox="0 0 100 100"><path fill="#c8ede6" d="M87.234,55.551c0.3-0.616,0.566-1.264,0.796-1.943c2.633-7.77-1.349-17.078-9.733-19.325 C77.391,22.9,69.391,15.09,60.356,13.758c-10.341-1.525-19.814,5.044-22.966,15.485c-3.799-1.346-7.501-1.182-10.99,0.857 c-1.583,0.732-3.031,1.812-4.33,3.233c-1.907,2.086-3.147,4.719-3.652,7.495c-0.748,0.118-1.483,0.236-2.176,0.484 c-4.04,1.449-6.589,4.431-7.288,8.923c-0.435,2.797,0.443,5.587,0.933,6.714c1.935,4.455,6.422,6.98,10.981,6.312 c0.227-0.033,0.557,0.069,0.752,0.233c0.241,7.12,3.698,13.417,8.884,17.014c8.321,5.772,19.027,3.994,25.781-3.921 c2.894,2.96,6.338,4.398,10.384,3.876c4.023-0.519,7.147-2.739,9.426-6.349c1.053,0.283,2.051,0.691,3.083,0.804 c4.042,0.442,7.297-1.184,9.732-4.8c0.083-0.124,0.203-0.219,0.306-0.328c0.348-0.798,0.696-1.596,1.044-2.394 c0.155-1.211,0.429-2.423,0.443-3.632C90.742,60.508,89.411,57.54,87.234,55.551z"/><path fill="#fff" d="M43.899 24h-10.03c-.276 0-.5-.224-.5-.5s.224-.5.5-.5h10.03c.276 0 .5.224.5.5S44.176 24 43.899 24zM47.28 23.5c0-.276-.224-.5-.5-.5h-1.446c-.276 0-.5.224-.5.5s.224.5.5.5h1.446C47.057 24 47.28 23.776 47.28 23.5zM51.335 23.5c0-.276-.224-.5-.5-.5h-2.546c-.276 0-.5.224-.5.5s.224.5.5.5h2.546C51.112 24 51.335 23.776 51.335 23.5zM51.335 25.5c0-.276-.224-.5-.5-.5h-9.616c-.276 0-.5.224-.5.5s.224.5.5.5h9.616C51.112 26 51.335 25.776 51.335 25.5zM39.987 25.5c0-.276-.224-.5-.5-.5h-.58c-.276 0-.5.224-.5.5s.224.5.5.5h.58C39.763 26 39.987 25.776 39.987 25.5zM37.611 25.5c0-.276-.224-.5-.5-.5h-1.457c-.276 0-.5.224-.5.5s.224.5.5.5h1.457C37.387 26 37.611 25.776 37.611 25.5zM46.746 21.5c0-.276-.224-.5-.5-.5h-5.027c-.276 0-.5.224-.5.5s.224.5.5.5h5.027C46.523 22 46.746 21.776 46.746 21.5zM46.746 19.5c0-.276-.224-.5-.5-.5h-1.257c-.276 0-.5.224-.5.5s.224.5.5.5h1.257C46.523 20 46.746 19.776 46.746 19.5zM43.477 27.5c0-.276-.224-.5-.5-.5h-1.758c-.276 0-.5.224-.5.5s.224.5.5.5h1.758C43.254 28 43.477 27.776 43.477 27.5zM86.744 64h-10.03c-.276 0-.5-.224-.5-.5s.224-.5.5-.5h10.031c.276 0 .5.224.5.5S87.021 64 86.744 64zM90.125 63.5c0-.276-.224-.5-.5-.5h-1.446c-.276 0-.5.224-.5.5s.224.5.5.5h1.446C89.902 64 90.125 63.776 90.125 63.5zM94.18 63.5c0-.276-.224-.5-.5-.5h-2.546c-.276 0-.5.224-.5.5s.224.5.5.5h2.546C93.956 64 94.18 63.776 94.18 63.5zM92.154 59.5c0-.276-.224-.5-.5-.5h-9.616c-.276 0-.5.224-.5.5s.224.5.5.5h9.616C91.93 60 92.154 59.776 92.154 59.5zM80.806 59.5c0-.276-.224-.5-.5-.5h-.58c-.276 0-.5.224-.5.5s.224.5.5.5h.58C80.583 60 80.806 59.776 80.806 59.5zM78.429 59.5c0-.276-.224-.5-.5-.5h-1.456c-.276 0-.5.224-.5.5s.224.5.5.5h1.456C78.206 60 78.429 59.776 78.429 59.5zM89.591 61.5c0-.276-.224-.5-.5-.5h-5.027c-.276 0-.5.224-.5.5s.224.5.5.5h5.027C89.367 62 89.591 61.776 89.591 61.5zM89.591 59.5c0-.276-.224-.5-.5-.5h-1.257c-.276 0-.5.224-.5.5s.224.5.5.5h1.257C89.367 60 89.591 59.776 89.591 59.5zM83.108 61.5c0-.276-.224-.5-.5-.5H80.85c-.276 0-.5.224-.5.5s.224.5.5.5h1.758C82.885 62 83.108 61.776 83.108 61.5z"/><path fill="#fdfcef" d="M72.337,46.423c0,0,11.691,0,11.762,0c2.7,0,4.888-2.189,4.888-4.889 c0-2.355-1.666-4.321-3.884-4.784c0.026-0.206,0.043-0.415,0.043-0.628c0-2.796-2.267-5.063-5.063-5.063 c-1.651,0-3.113,0.794-4.037,2.017c-0.236-3.113-3.017-5.514-6.27-5.116c-2.379,0.291-4.346,2.13-4.784,4.486 c-0.14,0.756-0.126,1.489,0.014,2.177c-0.638-0.687-1.546-1.119-2.557-1.119c-1.85,0-3.361,1.441-3.48,3.261 c-0.84-0.186-1.754-0.174-2.717,0.188c-1.84,0.691-3.15,2.423-3.227,4.387c-0.109,2.789,2.12,5.085,4.885,5.085 c0.21,0,0.948,0,1.118,0h10.151"/><path fill="#472b29" d="M84.099,46.923H72.337c-0.276,0-0.5-0.224-0.5-0.5s0.224-0.5,0.5-0.5h11.762 c2.42,0,4.389-1.969,4.389-4.389c0-2.066-1.466-3.873-3.486-4.295c-0.255-0.053-0.426-0.293-0.394-0.552 c0.023-0.186,0.039-0.374,0.039-0.565c0-2.517-2.047-4.563-4.562-4.563c-1.438,0-2.765,0.663-3.638,1.818 c-0.125,0.166-0.338,0.237-0.54,0.178c-0.199-0.059-0.342-0.234-0.357-0.441c-0.104-1.377-0.779-2.671-1.85-3.549 c-1.083-0.888-2.456-1.282-3.86-1.109c-2.166,0.266-3.956,1.943-4.353,4.081c-0.124,0.667-0.12,1.335,0.013,1.986 c0.044,0.22-0.062,0.442-0.262,0.544c-0.2,0.104-0.443,0.06-0.595-0.104c-0.575-0.618-1.353-0.959-2.19-0.959 c-1.569,0-2.878,1.228-2.981,2.794c-0.01,0.146-0.082,0.279-0.199,0.366c-0.117,0.089-0.268,0.12-0.408,0.089 c-0.841-0.185-1.637-0.132-2.433,0.167c-1.669,0.627-2.835,2.209-2.903,3.938c-0.047,1.207,0.387,2.35,1.221,3.218 c0.835,0.869,1.959,1.348,3.164,1.348h11.269c0.276,0,0.5,0.224,0.5,0.5s-0.224,0.5-0.5,0.5H57.912 c-1.479,0-2.858-0.588-3.884-1.654c-1.025-1.066-1.558-2.469-1.5-3.95c0.083-2.126,1.51-4.069,3.55-4.835 c0.8-0.301,1.626-0.398,2.468-0.299c0.377-1.822,1.998-3.182,3.905-3.182c0.684,0,1.354,0.18,1.944,0.51 c0-0.386,0.035-0.772,0.106-1.159c0.477-2.562,2.621-4.573,5.215-4.891c1.679-0.205,3.32,0.266,4.616,1.328 c1.003,0.823,1.716,1.951,2.038,3.193c1.012-0.916,2.319-1.426,3.714-1.426c3.067,0,5.562,2.496,5.562,5.563 c0,0.083-0.002,0.166-0.007,0.248c2.254,0.673,3.848,2.776,3.848,5.164C89.488,44.507,87.071,46.923,84.099,46.923z"/><path fill="#fdfcef" d="M69.504,35.655c-1.808-0.119-3.365,1.13-3.476,2.789c-0.014,0.206-0.005,0.409,0.025,0.606 c-0.349-0.394-0.865-0.661-1.458-0.7c-1.085-0.071-2.022,0.645-2.158,1.62c-0.197-0.054-0.403-0.09-0.616-0.104 c-1.582-0.104-2.944,0.989-3.042,2.441"/><path fill="#472b29" d="M58.78,42.556c-0.006,0-0.012,0-0.017-0.001c-0.138-0.009-0.242-0.128-0.233-0.266 c0.107-1.587,1.588-2.789,3.308-2.674c0.137,0.009,0.273,0.026,0.409,0.053c0.274-0.968,1.256-1.645,2.366-1.567 c0.425,0.027,0.823,0.159,1.164,0.382c0-0.019,0.002-0.037,0.003-0.056c0.12-1.795,1.787-3.16,3.742-3.021 c0.138,0.009,0.242,0.128,0.233,0.266c-0.009,0.138-0.124,0.255-0.266,0.232c-1.651-0.105-3.108,1.037-3.21,2.557 c-0.012,0.184-0.004,0.37,0.023,0.553c0.017,0.109-0.041,0.217-0.141,0.264s-0.219,0.022-0.293-0.061 c-0.323-0.365-0.78-0.584-1.287-0.617c-0.951-0.034-1.775,0.556-1.894,1.404c-0.01,0.071-0.05,0.135-0.11,0.175 c-0.06,0.039-0.133,0.051-0.204,0.032c-0.187-0.051-0.377-0.083-0.567-0.097c-1.44-0.092-2.687,0.896-2.775,2.209 C59.02,42.455,58.91,42.556,58.78,42.556z"/><path fill="#fdfcef" d="M86.079,37.323c-1.699-0.801-3.664-0.234-4.389,1.267c-0.09,0.186-0.157,0.379-0.201,0.574"/><path fill="#472b29" d="M81.489,39.414c-0.018,0-0.037-0.002-0.056-0.006c-0.134-0.031-0.219-0.165-0.188-0.3 c0.049-0.217,0.123-0.428,0.219-0.627c0.783-1.621,2.902-2.239,4.721-1.385c0.125,0.06,0.179,0.208,0.12,0.333 c-0.059,0.126-0.209,0.176-0.333,0.12c-1.574-0.744-3.394-0.227-4.058,1.149c-0.08,0.165-0.141,0.34-0.182,0.521 C81.706,39.336,81.603,39.414,81.489,39.414z"/><path fill="#fdfcee" d="M33.936,72.3c-1.232,0-2.235-1.003-2.235-2.235V35.936c0-1.232,1.003-2.235,2.235-2.235h36.129 c1.232,0,2.235,1.003,2.235,2.235v34.129c0,1.232-1.003,2.235-2.235,2.235H33.936z"/><path fill="#472b29" d="M70.065,34.4c0.846,0,1.535,0.689,1.535,1.535v34.13c0,0.846-0.689,1.535-1.535,1.535h-36.13 c-0.846,0-1.535-0.689-1.535-1.535v-34.13c0-0.846,0.689-1.535,1.535-1.535H70.065 M70.065,33h-36.13 C32.314,33,31,34.314,31,35.935v34.13C31,71.686,32.314,73,33.935,73h36.13C71.686,73,73,71.686,73,70.065v-34.13 C73,34.314,71.686,33,70.065,33L70.065,33z"/><path fill="#ef7d99" d="M32.437,43.404h39.125V35.5c0-0.587-0.476-1.063-1.062-1.063H33.625 c-0.656,0-1.188,0.532-1.188,1.188V43.404z"/><path fill="#fff6ae" d="M64.25 48.25H67.75V51.75H64.25z"/><path fill="#472b29" d="M67.5,48.5v3h-3v-3H67.5 M68,48h-4v4h4V48L68,48z"/><path fill="#fff6ae" d="M57.25 48.25H60.75V51.75H57.25z"/><path fill="#472b29" d="M60.5,48.5v3h-3v-3H60.5 M61,48h-4v4h4V48L61,48z"/><path fill="#fff6ae" d="M50.25 48.25H53.75V51.75H50.25z"/><path fill="#472b29" d="M53.5,48.5v3h-3v-3H53.5 M54,48h-4v4h4V48L54,48z"/><path fill="#fff6ae" d="M43.25 48.25H46.75V51.75H43.25z"/><path fill="#472b29" d="M46.5,48.5v3h-3v-3H46.5 M47,48h-4v4h4V48L47,48z"/><path fill="#fff6ae" d="M36.25 48.25H39.75V51.75H36.25z"/><path fill="#472b29" d="M39.5,48.5v3h-3v-3H39.5 M40,48h-4v4h4V48L40,48z"/><path fill="#fff6ae" d="M64.25 55.25H67.75V58.75H64.25z"/><path fill="#472b29" d="M67.5,55.5v3h-3v-3H67.5 M68,55h-4v4h4V55L68,55z"/><path fill="#fff6ae" d="M57.25 55.25H60.75V58.75H57.25z"/><path fill="#472b29" d="M60.5,55.5v3h-3v-3H60.5 M61,55h-4v4h4V55L61,55z"/><g><path fill="#fff6ae" d="M50.25 55.25H53.75V58.75H50.25z"/><path fill="#472b29" d="M53.5,55.5v3h-3v-3H53.5 M54,55h-4v4h4V55L54,55z"/></g><g><path fill="#fff6ae" d="M43.25 55.25H46.75V58.75H43.25z"/><path fill="#472b29" d="M46.5,55.5v3h-3v-3H46.5 M47,55h-4v4h4V55L47,55z"/></g><g><path fill="#fff6ae" d="M36.25 55.25H39.75V58.75H36.25z"/><path fill="#472b29" d="M39.5,55.5v3h-3v-3H39.5 M40,55h-4v4h4V55L40,55z"/></g><g><path fill="#fff6ae" d="M50.25 62.25H53.75V65.75H50.25z"/><path fill="#472b29" d="M53.5,62.5v3h-3v-3H53.5 M54,62h-4v4h4V62L54,62z"/></g><g><path fill="#fff6ae" d="M43.25 62.25H46.75V65.75H43.25z"/><path fill="#472b29" d="M46.5,62.5v3h-3v-3H46.5 M47,62h-4v4h4V62L47,62z"/></g><g><path fill="#fff6ae" d="M36.25 62.25H39.75V65.75H36.25z"/><path fill="#472b29" d="M39.5,62.5v3h-3v-3H39.5 M40,62h-4v4h4V62L40,62z"/></g><g><path fill="#fdfcef" d="M35.178,77.287c1.883,0,3.517,0,3.54,0c2.11,0,3.821-1.674,3.821-3.739 c0-1.802-1.302-3.305-3.035-3.66c0.02-0.158,0.034-0.317,0.034-0.48c0-2.139-1.772-3.873-3.957-3.873 c-1.29,0-2.433,0.607-3.155,1.543c-0.185-2.381-2.358-4.218-4.9-3.913c-1.859,0.223-3.397,1.629-3.739,3.431 c-0.11,0.578-0.098,1.139,0.011,1.665c-0.498-0.525-1.208-0.856-1.998-0.856c-1.446,0-2.627,1.102-2.72,2.494 c-0.657-0.142-1.371-0.133-2.123,0.143c-1.438,0.528-2.462,1.853-2.522,3.356c-0.085,2.133,1.657,3.889,3.818,3.889 c0.164,0,0.741,0,0.874,0h7.934 M28.701,77.287h0.36"/><path fill="#472b29" d="M38.718,77.788h-3.54c-0.276,0-0.5-0.224-0.5-0.5s0.224-0.5,0.5-0.5h3.54 c1.831,0,3.321-1.453,3.321-3.239c0-1.524-1.108-2.858-2.636-3.17c-0.256-0.053-0.429-0.294-0.396-0.554 c0.018-0.137,0.03-0.275,0.03-0.417c0-1.86-1.551-3.373-3.457-3.373c-1.092,0-2.098,0.491-2.76,1.349 c-0.126,0.164-0.341,0.231-0.539,0.174c-0.198-0.06-0.339-0.234-0.355-0.44c-0.079-1.02-0.565-1.944-1.369-2.604 c-0.829-0.68-1.885-0.979-2.973-0.853c-1.646,0.197-3.006,1.442-3.307,3.027c-0.094,0.495-0.091,0.99,0.009,1.472 c0.045,0.219-0.06,0.441-0.258,0.545c-0.197,0.102-0.44,0.063-0.594-0.1c-0.428-0.451-1.009-0.7-1.635-0.7 c-1.169,0-2.145,0.891-2.221,2.027c-0.01,0.146-0.082,0.278-0.198,0.366c-0.116,0.087-0.264,0.12-0.406,0.089 c-0.639-0.138-1.243-0.098-1.846,0.125c-1.262,0.463-2.144,1.631-2.195,2.905c-0.035,0.876,0.283,1.709,0.895,2.346 c0.635,0.66,1.496,1.024,2.423,1.024h8.807c0.276,0,0.5,0.224,0.5,0.5s-0.224,0.5-0.5,0.5h-8.807 c-1.185,0-2.331-0.485-3.144-1.331c-0.803-0.836-1.219-1.929-1.173-3.078c0.067-1.675,1.212-3.204,2.849-3.806 c0.61-0.225,1.24-0.304,1.88-0.244c0.344-1.396,1.629-2.424,3.135-2.424c0.493,0,0.977,0.113,1.414,0.323 c0.009-0.242,0.037-0.484,0.083-0.727c0.381-2.009,2.096-3.585,4.17-3.833c1.365-0.167,2.685,0.218,3.726,1.071 c0.748,0.613,1.278,1.409,1.546,2.302c0.791-0.648,1.786-1.007,2.842-1.007c2.458,0,4.457,1.962,4.457,4.373 c0,0.034,0,0.068-0.001,0.103c1.764,0.555,3.003,2.188,3.003,4.038C43.039,75.886,41.101,77.788,38.718,77.788z M29.061,77.788 h-0.36c-0.276,0-0.5-0.224-0.5-0.5s0.224-0.5,0.5-0.5h0.36c0.276,0,0.5,0.224,0.5,0.5S29.337,77.788,29.061,77.788z"/><g><path fill="#472b29" d="M37.011,71.984c-0.018,0-0.036-0.002-0.055-0.006c-0.135-0.03-0.22-0.164-0.189-0.299 c0.037-0.164,0.094-0.325,0.17-0.479c0.604-1.224,2.272-1.677,3.722-1.007c0.125,0.058,0.18,0.206,0.122,0.331 c-0.058,0.126-0.207,0.179-0.332,0.122c-1.201-0.556-2.577-0.208-3.063,0.774c-0.058,0.118-0.102,0.242-0.13,0.367 C37.229,71.905,37.126,71.984,37.011,71.984z"/></g><g><path fill="#472b29" d="M31.852,77.788h-1.107c-0.276,0-0.5-0.224-0.5-0.5s0.224-0.5,0.5-0.5h1.107 c0.276,0,0.5,0.224,0.5,0.5S32.129,77.788,31.852,77.788z"/></g></g><g><path fill="#472b29" d="M67.5 37.2c-.387 0-.7-.313-.7-.7v-5c0-.387.313-.7.7-.7s.7.313.7.7v5C68.2 36.887 67.887 37.2 67.5 37.2zM62.5 37.2c-.387 0-.7-.313-.7-.7v-5c0-.387.313-.7.7-.7s.7.313.7.7v5C63.2 36.887 62.887 37.2 62.5 37.2zM57.5 37.2c-.387 0-.7-.313-.7-.7v-5c0-.387.313-.7.7-.7s.7.313.7.7v5C58.2 36.887 57.887 37.2 57.5 37.2zM52.5 37.2c-.387 0-.7-.313-.7-.7v-5c0-.387.313-.7.7-.7s.7.313.7.7v5C53.2 36.887 52.887 37.2 52.5 37.2zM47.5 37.2c-.387 0-.7-.313-.7-.7v-5c0-.387.313-.7.7-.7s.7.313.7.7v5C48.2 36.887 47.887 37.2 47.5 37.2zM42.5 37.2c-.387 0-.7-.313-.7-.7v-5c0-.387.313-.7.7-.7s.7.313.7.7v5C43.2 36.887 42.887 37.2 42.5 37.2zM37.5 37.2c-.387 0-.7-.313-.7-.7v-5c0-.387.313-.7.7-.7s.7.313.7.7v5C38.2 36.887 37.887 37.2 37.5 37.2z"/></g><g><path fill="#472b29" d="M56.5,44h-25c-0.276,0-0.5-0.224-0.5-0.5s0.224-0.5,0.5-0.5h25c0.276,0,0.5,0.224,0.5,0.5 S56.776,44,56.5,44z"/></g><g><path fill="#472b29" d="M64.5,44h-4c-0.276,0-0.5-0.224-0.5-0.5s0.224-0.5,0.5-0.5h4c0.276,0,0.5,0.224,0.5,0.5 S64.776,44,64.5,44z"/></g><g><path fill="#472b29" d="M72.5,44h-5c-0.276,0-0.5-0.224-0.5-0.5s0.224-0.5,0.5-0.5h5c0.276,0,0.5,0.224,0.5,0.5 S72.776,44,72.5,44z"/></g><g><path fill="#ea4989" d="M61.6,54.4v5.2h-5.2v-5.2H61.6 M63,53h-8v8h8V53L63,53z"/></g></svg>