<svg xmlns="http://www.w3.org/2000/svg" xmlns:xlink="http://www.w3.org/1999/xlink" width="50" height="50" viewBox="0 0 50 50">
  <defs>
    <clipPath id="clip-path">
      <circle id="mask" cx="25" cy="25" r="25" fill="none"/>
    </clipPath>
    <clipPath id="clip-path-2">
      <circle id="big-1" cx="16.667" cy="16.667" r="16.667" fill="#64c8ff"/>
    </clipPath>
  </defs>
  <g id="logo-light" clip-path="url(#clip-path)">
    <g id="G-Left" transform="translate(2.667 2.667)" clip-path="url(#clip-path-2)">
      <g id="big-2" fill="none">
        <path d="M16.667,0A16.667,16.667,0,0,1,33.333,16.667c0,9.2-7.462,27.333-16.667,27.333S0,25.871,0,16.667A16.667,16.667,0,0,1,16.667,0Z" stroke="none"/>
        <path d="M 16.66666793823242 5 C 13.55039024353027 5 10.62063407897949 6.213542938232422 8.417089462280273 8.417087554931641 C 6.213544845581055 10.62063217163086 5.000001907348633 13.55038833618164 5.000001907348633 16.66666603088379 C 5.000001907348633 20.5975227355957 6.767423629760742 26.67298889160156 9.298057556152344 31.44108963012695 C 12.06941223144531 36.66272354125977 14.99582290649414 39 16.66666793823242 39 C 18.3375129699707 39 21.26392364501953 36.66272354125977 24.0352783203125 31.44108963012695 C 26.5659122467041 26.67298889160156 28.33333396911621 20.5975227355957 28.33333396911621 16.66666603088379 C 28.33333396911621 13.55038833618164 27.11978912353516 10.62063217163086 24.91624450683594 8.417087554931641 C 22.71269989013672 6.213542938232422 19.78294563293457 5 16.66666793823242 5 M 16.66666793823242 0 C 25.87141227722168 0 33.33333587646484 7.461921691894531 33.33333587646484 16.66666603088379 C 33.33333587646484 25.87141036987305 25.87141227722168 44 16.66666793823242 44 C 7.461923599243164 44 0 25.87141036987305 0 16.66666603088379 C 0 7.461921691894531 7.461923599243164 0 16.66666793823242 0 Z" stroke="none" fill="#64c8ff"/>
      </g>
      <rect id="part" width="13.333" height="3.333" transform="translate(16.667 18.667)" fill="#64c8ff"/>
    </g>
    <g id="G-Right" transform="translate(14 14)" clip-path="url(#clip-path-2)">
      <g id="big-2-2" data-name="big-2" transform="translate(0 4.667)" fill="none">
        <path d="M16.667-14c9.2,0,16.667,16.8,16.667,26A16.667,16.667,0,0,1,0,12C0,2.8,7.462-14,16.667-14Z" stroke="none"/>
        <path d="M 16.66666793823242 -9.000005722045898 C 14.55216789245605 -9.000005722045898 11.63583755493164 -6.250816345214844 9.236978530883789 -1.996126174926758 C 7.956117630004883 0.2756443023681641 6.87371826171875 2.855454444885254 6.106767654418945 5.464404106140137 C 5.393058776855469 7.892293930053711 4.999998092651367 10.21334457397461 4.999998092651367 12.00000381469727 C 4.999998092651367 15.11628437042236 6.213537216186523 18.04603385925293 8.417087554931641 20.24957466125488 C 10.62062835693359 22.453125 13.55038833618164 23.66666412353516 16.66666793823242 23.66666412353516 C 19.7829475402832 23.66666412353516 22.71270751953125 22.4531135559082 24.9162483215332 20.24957466125488 C 27.11978912353516 18.04603385925293 28.33333778381348 15.11628437042236 28.33333778381348 12.00000381469727 C 28.33333778381348 10.21334457397461 27.94027709960938 7.892293930053711 27.22655868530273 5.464413642883301 C 26.45961761474609 2.855454444885254 25.3772087097168 0.2756443023681641 24.09634780883789 -1.996126174926758 C 21.6974983215332 -6.250816345214844 18.78116798400879 -9.000005722045898 16.66666793823242 -9.000005722045898 M 16.66666793823242 -14.0000057220459 C 25.87140846252441 -14.0000057220459 33.33333969116211 2.795253753662109 33.33333969116211 12.00000381469727 C 33.33333969116211 21.20474433898926 25.87140846252441 28.66666412353516 16.66666793823242 28.66666412353516 C 7.461917877197266 28.66666412353516 -3.814697265625e-06 21.20474433898926 -3.814697265625e-06 12.00000381469727 C -3.814697265625e-06 2.795253753662109 7.461917877197266 -14.0000057220459 16.66666793823242 -14.0000057220459 Z" stroke="none" fill="#64c8ff"/>
      </g>
      <rect id="part-2" data-name="part" width="13.333" height="3.333" transform="translate(16.667 18.667)" fill="#64c8ff"/>
    </g>
  </g>
</svg>
