<svg width="153" height="168" viewBox="0 0 153 168" fill="none" xmlns="http://www.w3.org/2000/svg">
<mask id="mask0" style="mask-type:alpha" maskUnits="userSpaceOnUse" x="33" y="48" width="120" height="120">
<circle cx="93" cy="108" r="60" fill="#101527"/>
</mask>
<g mask="url(#mask0)">
<rect x="97" y="100" width="40" height="16" fill="#64C8FF"/>
<path d="M145 108C145 136.719 121.719 160 93 160C64.2812 160 41 136.719 41 108C41 93.1322 47.1813 71.4982 57.5065 53.5654C62.6286 44.6693 68.5391 37.0978 74.794 31.838C81.048 26.5791 87.18 24 93 24C98.82 24 104.952 26.5791 111.206 31.838C117.461 37.0978 123.371 44.6693 128.493 53.5654C138.819 71.4982 145 93.1322 145 108Z" stroke="#64C8FF" stroke-width="16"/>
</g>
<mask id="mask1" style="mask-type:alpha" maskUnits="userSpaceOnUse" x="0" y="0" width="120" height="120">
<circle cx="60" cy="60" r="60" fill="#101527"/>
</mask>
<g mask="url(#mask1)">
<rect x="64" y="52" width="40" height="16" fill="#64C8FF"/>
<path d="M112 60C112 74.8678 105.819 96.5018 95.4935 114.435C90.3714 123.331 84.4609 130.902 78.206 136.162C71.952 141.421 65.82 144 60 144C54.18 144 48.048 141.421 41.794 136.162C35.5391 130.902 29.6286 123.331 24.5065 114.435C14.1813 96.5018 8 74.8678 8 60C8 31.2812 31.2812 8 60 8C88.7188 8 112 31.2812 112 60Z" stroke="#64C8FF" stroke-width="16"/>
</g>
</svg>
