<svg xmlns="http://www.w3.org/2000/svg" xmlns:xlink="http://www.w3.org/1999/xlink" viewBox="0 0 100 100"><circle cx="78" cy="14" r="1" fill="#f1bc19"/><circle cx="50" cy="50" r="38" fill="#f9dbd2"/><circle cx="84" cy="16" r="4" fill="#f1bc19"/><circle cx="14" cy="26" r="2" fill="#ee3e54"/><circle cx="78" cy="77" r="2" fill="#fbcd59"/><circle cx="17" cy="78" r="4" fill="#fbcd59"/><circle cx="24" cy="83" r="2" fill="#ee3e54"/><circle cx="66.483" cy="78.517" r="2.483" fill="#fff"/><circle cx="16" cy="48" r="1" fill="#fff"/><circle cx="86" cy="31" r="1" fill="#f1bc19"/><circle cx="80" cy="66" r="2" fill="#fff"/><g><path fill="#8889b9" d="M29.65,25.878c0-0.098,0.092-0.178,0.206-0.178h39.188c0.114,0,0.206,0.081,0.206,0.178v45.193 c0,0.098-0.092,0.178-0.206,0.178H54l-4.625,7.25L45,71.25H29.856c-0.114,0-0.206-0.081-0.206-0.178 C29.65,71.072,29.65,25.878,29.65,25.878z"/><path fill="#c5def0" d="M39,66.561V30.437c0-0.932,0.756-1.687,1.688-1.687h17.624c0.932,0,1.688,0.756,1.688,1.687v36.124 c0,0.932-0.756,1.688-1.688,1.688H40.687C39.756,68.249,39,67.493,39,66.561z"/><path fill="#472b29" d="M38.75,62.542V30.438c0-1.068,0.869-1.938,1.938-1.938h17.624c1.068,0,1.938,0.869,1.938,1.938 V34.5c0,0.138-0.112,0.25-0.25,0.25s-0.25-0.112-0.25-0.25v-4.063c0-0.793-0.645-1.438-1.438-1.438H40.687 c-0.792,0-1.438,0.645-1.438,1.438v32.104c0,0.138-0.112,0.25-0.25,0.25S38.75,62.68,38.75,62.542z"/><path fill="#472b29" d="M38.75,66.562v-1.228c0-0.138,0.112-0.25,0.25-0.25s0.25,0.112,0.25,0.25v1.228 c0,0.793,0.645,1.438,1.438,1.438h17.624c0.792,0,1.438-0.645,1.438-1.438V48.417c0-0.138,0.112-0.25,0.25-0.25 s0.25,0.112,0.25,0.25v18.145c0,1.068-0.869,1.938-1.938,1.938H40.687C39.619,68.499,38.75,67.63,38.75,66.562z"/><path fill="#472b29" d="M59.75,45v-7.5c0-0.138,0.112-0.25,0.25-0.25s0.25,0.112,0.25,0.25V45 c0,0.138-0.112,0.25-0.25,0.25S59.75,45.138,59.75,45z"/><g><path fill="#c7ede6" d="M62,31.907v-1.814c0-0.327,0.265-0.593,0.593-0.593h3.314c0.327,0,0.593,0.265,0.593,0.593v1.814 c0,0.327-0.265,0.593-0.593,0.593h-3.314C62.265,32.5,62,32.235,62,31.907z"/><path fill="#c7ede6" d="M62,38.907v-1.814c0-0.327,0.265-0.593,0.593-0.593h3.314c0.327,0,0.593,0.265,0.593,0.593v1.814 c0,0.327-0.265,0.593-0.593,0.593h-3.314C62.265,39.5,62,39.235,62,38.907z"/><path fill="#472b29" d="M61.75,38.907v-1.814c0-0.465,0.378-0.843,0.843-0.843h3.314c0.465,0,0.843,0.378,0.843,0.843 v1.814c0,0.465-0.378,0.843-0.843,0.843h-3.314C62.128,39.75,61.75,39.372,61.75,38.907z M66.25,37.093 c0-0.189-0.154-0.343-0.343-0.343h-3.314c-0.189,0-0.343,0.153-0.343,0.343v1.814c0,0.189,0.154,0.343,0.343,0.343h3.314 c0.189,0,0.343-0.153,0.343-0.343V37.093z"/><path fill="#c7ede6" d="M62,45.907v-1.814c0-0.327,0.265-0.593,0.593-0.593h3.314c0.327,0,0.593,0.265,0.593,0.593v1.814 c0,0.327-0.265,0.593-0.593,0.593h-3.314C62.265,46.5,62,46.235,62,45.907z"/><path fill="#472b29" d="M61.75,45.907v-1.814c0-0.465,0.378-0.843,0.843-0.843h3.314c0.465,0,0.843,0.378,0.843,0.843 v1.814c0,0.465-0.378,0.843-0.843,0.843h-3.314C62.128,46.75,61.75,46.372,61.75,45.907z M66.25,44.093 c0-0.189-0.154-0.343-0.343-0.343h-3.314c-0.189,0-0.343,0.153-0.343,0.343v1.814c0,0.189,0.154,0.343,0.343,0.343h3.314 c0.189,0,0.343-0.153,0.343-0.343V44.093z"/><path fill="#c7ede6" d="M62,52.907v-1.814c0-0.327,0.265-0.593,0.593-0.593h3.314c0.327,0,0.593,0.265,0.593,0.593v1.814 c0,0.327-0.265,0.593-0.593,0.593h-3.314C62.265,53.5,62,53.235,62,52.907z"/><path fill="#472b29" d="M61.75,52.907v-1.814c0-0.465,0.378-0.843,0.843-0.843h3.314c0.465,0,0.843,0.378,0.843,0.843 v1.814c0,0.465-0.378,0.843-0.843,0.843h-3.314C62.128,53.75,61.75,53.372,61.75,52.907z M66.25,51.093 c0-0.189-0.154-0.343-0.343-0.343h-3.314c-0.189,0-0.343,0.153-0.343,0.343v1.814c0,0.189,0.154,0.343,0.343,0.343h3.314 c0.189,0,0.343-0.153,0.343-0.343V51.093z"/><path fill="#c7ede6" d="M62,59.907v-1.814c0-0.327,0.265-0.593,0.593-0.593h3.314c0.327,0,0.593,0.265,0.593,0.593v1.814 c0,0.327-0.265,0.593-0.593,0.593h-3.314C62.265,60.5,62,60.235,62,59.907z"/><path fill="#472b29" d="M61.75,59.907v-1.814c0-0.465,0.378-0.843,0.843-0.843h3.314c0.465,0,0.843,0.378,0.843,0.843 v1.814c0,0.465-0.378,0.843-0.843,0.843h-3.314C62.128,60.75,61.75,60.372,61.75,59.907z M66.25,58.093 c0-0.189-0.154-0.343-0.343-0.343h-3.314c-0.189,0-0.343,0.153-0.343,0.343v1.814c0,0.189,0.154,0.343,0.343,0.343h3.314 c0.189,0,0.343-0.153,0.343-0.343V58.093z"/><path fill="#c7ede6" d="M62,66.907v-1.814c0-0.327,0.265-0.593,0.593-0.593h3.314c0.327,0,0.593,0.265,0.593,0.593v1.814 c0,0.327-0.265,0.593-0.593,0.593h-3.314C62.265,67.5,62,67.235,62,66.907z"/><path fill="#472b29" d="M61.75,66.907v-1.814c0-0.465,0.378-0.843,0.843-0.843h3.314c0.465,0,0.843,0.378,0.843,0.843 v1.814c0,0.465-0.378,0.843-0.843,0.843h-3.314C62.128,67.75,61.75,67.372,61.75,66.907z M66.25,65.093 c0-0.189-0.154-0.343-0.343-0.343h-3.314c-0.189,0-0.343,0.153-0.343,0.343v1.814c0,0.189,0.154,0.343,0.343,0.343h3.314 c0.189,0,0.343-0.153,0.343-0.343V65.093z"/><path fill="#c7ede6" d="M32.5,31.907v-1.814c0-0.327,0.265-0.593,0.593-0.593h3.314c0.327,0,0.593,0.265,0.593,0.593 v1.814c0,0.327-0.265,0.593-0.593,0.593h-3.314C32.765,32.5,32.5,32.235,32.5,31.907z"/><path fill="#472b29" d="M32.25,31.907v-1.814c0-0.465,0.378-0.843,0.843-0.843h3.314c0.465,0,0.843,0.378,0.843,0.843 v1.814c0,0.465-0.378,0.843-0.843,0.843h-3.314C32.628,32.75,32.25,32.372,32.25,31.907z M36.75,30.093 c0-0.189-0.154-0.343-0.343-0.343h-3.314c-0.189,0-0.343,0.153-0.343,0.343v1.814c0,0.189,0.154,0.343,0.343,0.343h3.314 c0.189,0,0.343-0.153,0.343-0.343V30.093z"/><g><path fill="#c7ede6" d="M32.5,38.907v-1.814c0-0.327,0.265-0.593,0.593-0.593h3.314c0.327,0,0.593,0.265,0.593,0.593 v1.814c0,0.327-0.265,0.593-0.593,0.593h-3.314C32.765,39.5,32.5,39.235,32.5,38.907z"/><path fill="#472b29" d="M32.25,38.907v-1.814c0-0.465,0.378-0.843,0.843-0.843h3.314c0.465,0,0.843,0.378,0.843,0.843 v1.814c0,0.465-0.378,0.843-0.843,0.843h-3.314C32.628,39.75,32.25,39.372,32.25,38.907z M36.75,37.093 c0-0.189-0.154-0.343-0.343-0.343h-3.314c-0.189,0-0.343,0.153-0.343,0.343v1.814c0,0.189,0.154,0.343,0.343,0.343h3.314 c0.189,0,0.343-0.153,0.343-0.343V37.093z"/></g><g><path fill="#c7ede6" d="M32.5,45.907v-1.814c0-0.327,0.265-0.593,0.593-0.593h3.314c0.327,0,0.593,0.265,0.593,0.593 v1.814c0,0.327-0.265,0.593-0.593,0.593h-3.314C32.765,46.5,32.5,46.235,32.5,45.907z"/><path fill="#472b29" d="M32.25,45.907v-1.814c0-0.465,0.378-0.843,0.843-0.843h3.314c0.465,0,0.843,0.378,0.843,0.843 v1.814c0,0.465-0.378,0.843-0.843,0.843h-3.314C32.628,46.75,32.25,46.372,32.25,45.907z M36.75,44.093 c0-0.189-0.154-0.343-0.343-0.343h-3.314c-0.189,0-0.343,0.153-0.343,0.343v1.814c0,0.189,0.154,0.343,0.343,0.343h3.314 c0.189,0,0.343-0.153,0.343-0.343V44.093z"/></g><g><path fill="#c7ede6" d="M32.5,52.907v-1.814c0-0.327,0.265-0.593,0.593-0.593h3.314c0.327,0,0.593,0.265,0.593,0.593 v1.814c0,0.327-0.265,0.593-0.593,0.593h-3.314C32.765,53.5,32.5,53.235,32.5,52.907z"/><path fill="#472b29" d="M32.25,52.907v-1.814c0-0.465,0.378-0.843,0.843-0.843h3.314c0.465,0,0.843,0.378,0.843,0.843 v1.814c0,0.465-0.378,0.843-0.843,0.843h-3.314C32.628,53.75,32.25,53.372,32.25,52.907z M36.75,51.093 c0-0.189-0.154-0.343-0.343-0.343h-3.314c-0.189,0-0.343,0.153-0.343,0.343v1.814c0,0.189,0.154,0.343,0.343,0.343h3.314 c0.189,0,0.343-0.153,0.343-0.343V51.093z"/></g><g><path fill="#c7ede6" d="M32.5,59.907v-1.814c0-0.327,0.265-0.593,0.593-0.593h3.314c0.327,0,0.593,0.265,0.593,0.593 v1.814c0,0.327-0.265,0.593-0.593,0.593h-3.314C32.765,60.5,32.5,60.235,32.5,59.907z"/><path fill="#472b29" d="M32.25,59.907v-1.814c0-0.465,0.378-0.843,0.843-0.843h3.314c0.465,0,0.843,0.378,0.843,0.843 v1.814c0,0.465-0.378,0.843-0.843,0.843h-3.314C32.628,60.75,32.25,60.372,32.25,59.907z M36.75,58.093 c0-0.189-0.154-0.343-0.343-0.343h-3.314c-0.189,0-0.343,0.153-0.343,0.343v1.814c0,0.189,0.154,0.343,0.343,0.343h3.314 c0.189,0,0.343-0.153,0.343-0.343V58.093z"/></g><g><path fill="#c7ede6" d="M32.5,66.907v-1.814c0-0.327,0.265-0.593,0.593-0.593h3.314c0.327,0,0.593,0.265,0.593,0.593 v1.814c0,0.327-0.265,0.593-0.593,0.593h-3.314C32.765,67.5,32.5,67.235,32.5,66.907z"/><path fill="#472b29" d="M32.25,66.907v-1.814c0-0.465,0.378-0.843,0.843-0.843h3.314c0.465,0,0.843,0.378,0.843,0.843 v1.814c0,0.465-0.378,0.843-0.843,0.843h-3.314C32.628,67.75,32.25,67.372,32.25,66.907z M36.75,65.093 c0-0.189-0.154-0.343-0.343-0.343h-3.314c-0.189,0-0.343,0.153-0.343,0.343v1.814c0,0.189,0.154,0.343,0.343,0.343h3.314 c0.189,0,0.343-0.153,0.343-0.343V65.093z"/></g><path fill="#472b29" d="M61.75,31.907v-1.814c0-0.465,0.378-0.843,0.843-0.843h3.314c0.465,0,0.843,0.378,0.843,0.843 v1.814c0,0.465-0.378,0.843-0.843,0.843h-3.314C62.128,32.75,61.75,32.372,61.75,31.907z M66.25,30.093 c0-0.189-0.154-0.343-0.343-0.343h-3.314c-0.189,0-0.343,0.153-0.343,0.343v1.814c0,0.189,0.154,0.343,0.343,0.343h3.314 c0.189,0,0.343-0.153,0.343-0.343V30.093z"/></g><path fill="#472b29" d="M69,25H30c-0.55,0-1,0.45-1,1v45c0,0.55,0.45,1,1,1h13.943c0.357,0,0.687,0.191,0.866,0.5 l3.361,5.82c0.25,0.44,0.71,0.7,1.21,0.7s0.96-0.26,1.21-0.7l3.361-5.82c0.179-0.309,0.509-0.5,0.866-0.5H69c0.55,0,1-0.45,1-1V26 C70,25.45,69.55,25,69,25z M68.6,70.6H55.05h-0.456c-0.714,0-1.374,0.381-1.731,0.998L52.63,72l-3.25,5.62L46.14,72l-0.232-0.402 C45.55,70.98,44.89,70.6,44.177,70.6H43.71H30.4V26.4h38.2V70.6z"/></g><path fill="#472b29" d="M54.5,47.198l-6-3.464C47.833,43.349,47,43.83,47,44.6v6.928c0,0.77,0.833,1.251,1.5,0.866l6-3.464C55.167,48.545,55.167,47.583,54.5,47.198z"/></svg>