<svg xmlns="http://www.w3.org/2000/svg" xmlns:xlink="http://www.w3.org/1999/xlink" width="5000" height="4000" viewBox="0 0 5000 4000">
  <defs>
    <clipPath id="clip-path">
      <rect id="box-home-page" width="5000" height="4000" transform="translate(7441 1188)" fill="#101527"/>
    </clipPath>
    <linearGradient id="linear-gradient" x1="0.5" x2="0.5" y2="1" gradientUnits="objectBoundingBox">
      <stop offset="0" stop-color="#fff" stop-opacity="0.388"/>
      <stop offset="1" stop-color="#64c8ff"/>
    </linearGradient>
  </defs>
  <g id="bg-home-parallax" transform="translate(-7441 -1188)" clip-path="url(#clip-path)">
    <rect id="bg-home-page" width="5000" height="4000" transform="translate(7441 1188)" fill="rgba(16,21,39,0)"/>
    <path id="Path_14" data-name="Path 14" d="M1183,0,2800.186,2720.994,2366,5166H0Z" transform="translate(6310 281)" fill="rgba(64,80,93,0.24)"/>
    <ellipse id="Ellipse_51" data-name="Ellipse 51" cx="700" cy="881" rx="700" ry="881" transform="translate(8288 4000)" fill="rgba(100,200,255,0.09)"/>
    <path id="Polygon_10" data-name="Polygon 10" d="M4785,0,9570,3667H0Z" transform="matrix(0.799, -0.602, 0.602, 0.799, 3562.101, 3670.887)" fill="rgba(0,144,255,0.05)"/>
    <path id="Path_22" data-name="Path 22" d="M0,0,15.61,5.191l18.7-2.663L42.32-2.48,68.027,8.2,78.712-2.48,82.05,10.541,100,0,97.742,18.879l8.013,15.692L94.4,39.58,85.723,51.933l20.032,10.016L97.742,74.635l12.019,14.356L100,100,82.05,82.648,72.7,91l-4.675,9L54,94l-8.013,7.345L26.628,91l-6.01,9-7.011-6L0,100,1.588,79.978l8.681-7.011-4.34-17.7,7.679-9.682L7.6,32.9l8.013-9.014L5.929,14.873Z" transform="translate(9792 4156)" fill="url(#linear-gradient)"/>
    <path id="Polygon_11" data-name="Polygon 11" d="M50,0l50,100H0Z" transform="translate(11504 5012)" fill="url(#linear-gradient)"/>
    <path id="Path_20" data-name="Path 20" d="M100,0c9.72,0-292.4,353.432-283.26,356.092C-141.912,368.128,200,54.492,200,100c0,55.228-420.084-411.292-475.312-411.292s524.7,906.718,524.7,851.49S44.772,0,100,0Z" transform="translate(10701 4333)" fill="url(#linear-gradient)"/>
    <path id="Path_23" data-name="Path 23" d="M0,0,18.978,6.224,39.662,25.979,65.008,14.521H87.727L100,0l6.5,4.446V20.052l-7.508,5.927,7.508,7.9,9.285,12.644-13.435,4.149,9.088,13.434-9.088,9.285,9.088,19.163L100,100,85.752,97.1l-10.273,3.754-25.484,8.3L43.277,90.185l-6.52,12.841-8.5-6.717-8.3,9.68L15.225,95.123,0,100l-8.877-8.63L0,83.863l-14.014-10.47,9.482-8.1L5.742,58.181l-16.4-10.668L1.4,40.6-8.877,29.93,8.9,22.621Z" transform="translate(11261 3242)" fill="url(#linear-gradient)"/>
    <path id="Polygon_12" data-name="Polygon 12" d="M50,0l50,100H0Z" transform="translate(11048 1602)" fill="url(#linear-gradient)"/>
    <path id="Path_19" data-name="Path 19" d="M513.5,438.912c55.228,0-313.472-707.842-192.128-465.153S204.694,378.24,149.466,378.24,0,155.228,0,100,458.27,438.912,513.5,438.912Z" transform="translate(11554 2290)" fill="url(#linear-gradient)"/>
    <path id="Path_21" data-name="Path 21" d="M0,0,32.46,6.652,63.021,19.236,100,0,96.922,22.061,103.343,51.6,94.61,66.748l8.732,7.7L94.61,75.994,100,100,76.119,94.742l-6.934,11.814L54.032,86.78,42.989,100l-19.775,3.988-8.475-9.246L0,100-3.752,78.305,6.521,63.667-5.036,47.487l13.354-13.1Z" transform="translate(8146 2864)" fill="url(#linear-gradient)"/>
    <path id="Polygon_13" data-name="Polygon 13" d="M50,0l50,100H0Z" transform="translate(8572 3860)" fill="url(#linear-gradient)"/>
    <path id="Path_18" data-name="Path 18" d="M710.589-71.665c55.228,0-412.857-192.848-412.857-137.619S155.228,200,100,200A100,100,0,0,1,0,100C0,44.772,655.36-71.665,710.589-71.665Z" transform="translate(8804.882 2432.312)" fill="url(#linear-gradient)"/>
  </g>
</svg>
