<svg xmlns="http://www.w3.org/2000/svg" xmlns:xlink="http://www.w3.org/1999/xlink" viewBox="0 0 50 50" fill="#0090FF">
  <path d="M35 2C32.03125 2 29.433594 3.730469 28.050781 6.265625C27.097656 6.113281 26.132813 6.019531 25.199219 6.007813L25.199219 6L25 6C13.398438 6 4 15.398438 4 27C4 38.601563 13.398438 48 25 48C36.601563 48 46 38.601563 46 27C46 22.511719 44.476563 18.117188 41.839844 14.5625C42.535156 12.96875 43 11.5 43 10.402344C43 5.800781 39.398438 2 35 2 Z M 35 4C38.300781 4 41 6.898438 41 10.402344C41 12.800781 37.800781 18.398438 35 22.5C32.199219 18.398438 29 12.800781 29 10.402344C29 6.898438 31.699219 4 35 4 Z M 35 6C32.800781 6 31 7.800781 31 10C31 12.199219 32.800781 14 35 14C37.199219 14 39 12.199219 39 10C39 7.800781 37.199219 6 35 6 Z M 35 8C36.117188 8 37 8.882813 37 10C37 11.117188 36.117188 12 35 12C33.882813 12 33 11.117188 33 10C33 8.882813 33.882813 8 35 8 Z M 26 8.046875C26.425781 8.066406 26.863281 8.105469 27.300781 8.15625C27.113281 8.875 27 9.625 27 10.402344C27 11.824219 27.769531 13.863281 28.828125 16L26 16 Z M 24 8.132813L24 16L17.71875 16C19.179688 11.746094 21.4375 8.757813 24 8.132813 Z M 19.398438 8.839844C17.824219 10.578125 16.519531 13.035156 15.585938 16L9.523438 16C11.917969 12.640625 15.363281 10.082031 19.398438 8.839844 Z M 40.855469 16.613281C42.734375 19.375 43.785156 22.632813 43.960938 26L35.992188 26C35.988281 25.542969 35.96875 25.101563 35.941406 24.648438C37.097656 22.980469 39.160156 19.890625 40.855469 16.613281 Z M 8.265625 18L15.03125 18C14.445313 20.433594 14.09375 23.128906 14.027344 26L6.050781 26C6.199219 23.117188 6.96875 20.402344 8.265625 18 Z M 17.109375 18L24 18L24 26L16.027344 26C16.101563 23.136719 16.476563 20.414063 17.109375 18 Z M 26 18L29.898438 18C31.339844 20.589844 32.875 22.929688 33.902344 24.421875C33.933594 24.9375 33.953125 25.46875 33.96875 26L26 26 Z M 6.050781 28L14.027344 28C14.09375 30.871094 14.445313 33.566406 15.03125 36L8.265625 36C6.96875 33.597656 6.199219 30.882813 6.050781 28 Z M 16.027344 28L24 28L24 36L17.109375 36C16.476563 33.585938 16.101563 30.863281 16.027344 28 Z M 26 28L33.972656 28C33.898438 30.863281 33.523438 33.585938 32.890625 36L26 36 Z M 35.972656 28L43.949219 28C43.800781 30.882813 43.03125 33.597656 41.734375 36L34.96875 36C35.554688 33.566406 35.90625 30.871094 35.972656 28 Z M 9.523438 38L15.585938 38C16.519531 40.964844 17.824219 43.421875 19.398438 45.160156C15.363281 43.917969 11.917969 41.359375 9.523438 38 Z M 17.71875 38L24 38L24 45.871094C21.441406 45.242188 19.179688 42.253906 17.71875 38 Z M 26 38L32.28125 38C30.820313 42.253906 28.558594 45.242188 26 45.871094 Z M 34.414063 38L40.476563 38C38.082031 41.359375 34.636719 43.917969 30.601563 45.160156C32.175781 43.421875 33.480469 40.964844 34.414063 38Z" fill="#0090FF" />
</svg>