<svg xmlns="http://www.w3.org/2000/svg" xmlns:xlink="http://www.w3.org/1999/xlink" viewBox="0 0 50 50" fill="#0090FF">
  <path d="M5 4C4.449219 4 4 4.449219 4 5L4 45C4 45.550781 4.449219 46 5 46L45 46C45.550781 46 46 45.550781 46 45L46 5C46 4.449219 45.550781 4 45 4 Z M 6 6L44 6L44 44L6 44 Z M 19 12L19 19L12 19L12 21L19 21L19 29L12 29L12 31L19 31L19 38L21 38L21 31L29 31L29 38L31 38L31 31L38 31L38 29L31 29L31 21L38 21L38 19L31 19L31 12L29 12L29 19L21 19L21 12 Z M 21 21L29 21L29 29L21 29Z" fill="#0090FF" />
</svg>